<?xml version="1.0" encoding="UTF-8"?>
<svg version="1.1" xmlns="http://www.w3.org/2000/svg" width="500" height="500">
<path d="M0 0 C0.08974402 41.06185777 -0.15003898 82.11883924 -0.44538212 123.17934597 C-0.50734315 131.80423251 -0.56710882 140.42913394 -0.62675762 149.05403674 C-0.74885948 166.70270779 -0.873505 184.35135989 -1 202 C-0.06752441 202.29874023 0.86495117 202.59748047 1.82568359 202.90527344 C5.0840237 204.02897725 7.68929185 205.45460824 10.625 207.25 C14.60386864 209.62558987 18.58507471 211.84360592 22.75 213.875 C30.343897 217.60273329 37.65236986 221.81464106 45 226 C47.93552314 227.67017815 50.87341176 229.33610548 53.8125 231 C54.48829102 231.38583252 55.16408203 231.77166504 55.86035156 232.16918945 C58.55273566 233.69338183 61.05647081 235.0188236 64 236 C64 236.99 64 237.98 64 239 C42.55 239 21.1 239 -1 239 C-0.83628906 244.07761719 -0.67257813 249.15523437 -0.50390625 254.38671875 C0.15284211 277.1165124 0.11681292 299.84167236 0.06866455 322.57897949 C0.05820568 328.06501868 0.05382001 333.55106297 0.04882812 339.03710938 C0.03828613 349.69141896 0.02135284 360.34570695 0 371 C-12.56607531 371.19544717 -12.56607531 371.19544717 -18.60546875 369.94140625 C-20.23258789 369.60979492 -20.23258789 369.60979492 -21.89257812 369.27148438 C-22.97990234 369.03751953 -24.06722656 368.80355469 -25.1875 368.5625 C-26.31736328 368.33240234 -27.44722656 368.10230469 -28.61132812 367.86523438 C-36.84493731 366.15506269 -36.84493731 366.15506269 -38 365 C-38.09608663 363.35509451 -38.12187787 361.70604309 -38.12025452 360.05833435 C-38.12231651 358.45337601 -38.12231651 358.45337601 -38.12442017 356.81599426 C-38.12082489 355.63204575 -38.11722961 354.44809723 -38.11352539 353.22827148 C-38.11367142 351.989422 -38.11381744 350.75057251 -38.1139679 349.47418213 C-38.11338892 346.06730167 -38.10835959 342.66048116 -38.10139394 339.25361133 C-38.09515993 335.69683174 -38.09455656 332.14005142 -38.09336853 328.58326721 C-38.09025535 321.84363418 -38.08204215 315.10401729 -38.07201904 308.36439139 C-38.06085748 300.69341602 -38.05534735 293.02243989 -38.05032361 285.35145843 C-38.03985952 269.567628 -38.02151421 253.78381982 -38 238 C-53.84 238 -69.68 238 -86 238 C-86.99 240.97 -87.98 243.94 -89 247 C-90.07401325 249.31600014 -91.19720693 251.61001333 -92.375 253.875 C-92.98656066 255.08158381 -93.59722758 256.28862101 -94.20703125 257.49609375 C-95.33664308 259.70363582 -96.47824315 261.90512366 -97.63671875 264.09765625 C-100.70001379 269.88918335 -100.70001379 269.88918335 -100.3125 276.1875 C-99.879375 277.115625 -99.44625 278.04375 -99 279 C-98.34 279 -97.68 279 -97 279 C-97 279.66 -97 280.32 -97 281 C-96.34 281 -95.68 281 -95 281 C-95 281.66 -95 282.32 -95 283 C-94.34 283 -93.68 283 -93 283 C-91.66015625 284.3984375 -91.66015625 284.3984375 -90.0625 286.375 C-80.59939267 297.38310444 -68.24014697 307.75142879 -54.9760437 313.94508362 C-49.40920339 316.78879195 -49.40920339 316.78879195 -48.30183411 320.06651306 C-48.07256993 322.63881878 -48.0994526 325.09600398 -48.21875 327.67578125 C-48.23006958 328.6009404 -48.24138916 329.52609955 -48.25305176 330.47929382 C-48.29773466 333.42582913 -48.39807332 336.36744387 -48.5 339.3125 C-48.54013785 341.3130806 -48.5766381 343.31373773 -48.609375 345.31445312 C-48.69744294 350.21152285 -48.83542786 355.10492822 -49 360 C-54.28085394 359.22009741 -58.53840831 357.73120409 -63.375 355.5625 C-64.15721924 355.21340576 -64.93943848 354.86431152 -65.74536133 354.50463867 C-73.95300729 350.7304284 -81.53495802 346.06709351 -89 341 C-89.66338379 340.5570459 -90.32676758 340.1140918 -91.01025391 339.65771484 C-92.71164912 338.49229966 -94.36110707 337.251786 -96 336 C-96 335.34 -96 334.68 -96 334 C-96.74040527 333.74404053 -97.48081055 333.48808105 -98.24365234 333.22436523 C-101.13387193 331.9405343 -102.83217152 330.59044937 -105.1015625 328.41015625 C-106.20757812 327.35731445 -106.20757812 327.35731445 -107.3359375 326.28320312 C-108.09132812 325.55037109 -108.84671875 324.81753906 -109.625 324.0625 C-110.388125 323.33353516 -111.15125 322.60457031 -111.9375 321.85351562 C-113.96714788 319.911107 -115.98926143 317.96196563 -118 316 C-118.57411621 315.46947021 -119.14823242 314.93894043 -119.73974609 314.39233398 C-121 313 -121 313 -121 311 C-121.66 311 -122.32 311 -123 311 C-124.73733111 309.03899134 -126.34561238 307.07528226 -127.9375 305 C-128.65425903 304.06788696 -128.65425903 304.06788696 -129.38549805 303.11694336 C-130.93379941 301.08544473 -132.46661471 299.04277303 -134 297 C-134.53592773 296.3002002 -135.07185547 295.60040039 -135.62402344 294.87939453 C-137.21321036 292.79196826 -138.76652732 290.68206325 -140.3125 288.5625 C-140.81064209 287.91345703 -141.30878418 287.26441406 -141.82202148 286.59570312 C-144.40835929 282.9575724 -145.12474117 281.77213206 -144.3828125 277.1796875 C-143.11179237 274.25705929 -141.65567309 271.71530387 -140 269 C-139.2775267 267.04664626 -138.55543188 265.09315016 -137.83666992 263.13842773 C-136.56907299 259.89860237 -134.97725956 256.83287426 -133.375 253.75 C-130.21577203 247.55507275 -127.2698887 241.28827491 -124.4375 234.9375 C-124.06061035 234.0930835 -123.6837207 233.24866699 -123.29541016 232.37866211 C-122.55146851 230.71115671 -121.80765076 229.04359603 -121.06396484 227.37597656 C-117.34978126 219.08170519 -113.59047156 210.86208091 -109.05078125 202.98046875 C-107.6674852 200.37328996 -106.72051318 197.68246699 -105.74609375 194.90234375 C-104.98170619 192.95335556 -104.063281 191.23905913 -103 189.4375 C-101.36849619 186.63335282 -100.07374705 183.89432023 -98.81900024 180.91390991 C-97.43190293 177.6724221 -95.9206896 174.4899072 -94.41796875 171.30078125 C-94.08130692 170.58448044 -93.74464508 169.86817963 -93.39778137 169.13017273 C-92.68823162 167.6214119 -91.97807307 166.11293725 -91.26733398 164.60473633 C-90.19904918 162.33701623 -89.1335769 160.06799032 -88.06835938 157.79882812 C-84.54695037 150.31142166 -80.97997378 142.86058594 -77.21386719 135.49243164 C-76.03514307 133.07215922 -75.02278136 130.6389007 -74.0625 128.125 C-72.32919977 123.64378477 -70.2340096 119.41724579 -68.05224609 115.13916016 C-63.56688303 106.26366961 -59.53352845 97.17218295 -55.42285156 88.11914062 C-54.0311873 85.06836803 -52.62364957 82.02544989 -51.2109375 78.984375 C-44.85996991 65.28223899 -44.85996991 65.28223899 -40 51 C-46.22722712 53.99829454 -52.1067413 57.39482543 -58 61 C-58.8146875 61.47824219 -59.629375 61.95648438 -60.46875 62.44921875 C-67.65111064 66.84952303 -74.28325196 72.01433862 -80.44140625 77.75 C-82 79 -82 79 -84 79 C-84.495 80.485 -84.495 80.485 -85 82 C-85.66 82 -86.32 82 -87 82 C-87 82.66 -87 83.32 -87 84 C-88.09355493 85.1288309 -89.19553682 86.25004131 -90.32421875 87.34375 C-100.9387088 97.83452805 -109.3060428 109.68708792 -116 123 C-116.49113281 123.93585938 -116.98226562 124.87171875 -117.48828125 125.8359375 C-130.53585513 152.06594391 -136.42492483 190.72522551 -127 219 C-128.08163333 221.48475212 -129.22209578 223.80646708 -130.5 226.1875 C-133.37312019 231.71737581 -136.06250545 237.26459311 -138.5 243 C-141.99265639 251.17462689 -145.95006522 259.08947803 -150 267 C-150.66 267 -151.32 267 -152 267 C-165.45305224 235.9146929 -170.53129312 206.85274773 -170 173 C-169.97486328 171.205625 -169.97486328 171.205625 -169.94921875 169.375 C-168.8581842 145.93334333 -160.7009811 120.75341789 -150 100 C-149.34 100 -148.68 100 -148 100 C-148 98.68 -148 97.36 -148 96 C-147.34 96 -146.68 96 -146 96 C-145.87560547 95.41226807 -145.75121094 94.82453613 -145.62304688 94.21899414 C-145.00366326 92.01304678 -144.22692665 90.43960885 -143.03125 88.49609375 C-142.6300293 87.84374756 -142.22880859 87.19140137 -141.81542969 86.51928711 C-141.38133789 85.83229736 -140.94724609 85.14530762 -140.5 84.4375 C-140.04786133 83.72150635 -139.59572266 83.0055127 -139.12988281 82.26782227 C-133.25471258 73.11484975 -126.2356908 65.15963751 -118.875 57.1875 C-118.30104492 56.56480225 -117.72708984 55.94210449 -117.13574219 55.30053711 C-113.36804566 51.28104976 -109.49886165 47.21104216 -105 44 C-104.34 44 -103.68 44 -103 44 C-102.773125 43.38125 -102.54625 42.7625 -102.3125 42.125 C-100.62070165 39.38589791 -99.00755839 38.94975528 -96 38 C-96 37.34 -96 36.68 -96 36 C-93.4385343 33.70351351 -92.52032428 33 -89 33 C-89 32.34 -89 31.68 -89 31 C-72.05544719 17.10965054 -47.85510783 8.07109413 -26.6875 3.1875 C-25.34546509 2.8769165 -25.34546509 2.8769165 -23.97631836 2.56005859 C-16.0258479 0.82256279 -8.13690361 -0.0307937 0 0 Z M-39 136 C-47.57347793 153.89782931 -56.14506106 171.79598919 -64.4921875 189.80078125 C-65.52097193 191.98361661 -66.59075502 194.14748038 -67.6953125 196.29296875 C-69.14472245 198.79943846 -69.14472245 198.79943846 -69 201 C-58.77 201 -48.54 201 -38 201 C-38 179.55 -38 158.1 -38 136 C-38.33 136 -38.66 136 -39 136 Z " fill="#F6F6F6" transform="translate(241,64)"/>
<path d="M0 0 C29.7692015 3.30768906 56.91096183 11.55089551 82 28 C82.67385742 28.43795898 83.34771484 28.87591797 84.04199219 29.32714844 C94.75257864 36.36326388 104.14711894 44.3141431 113.26953125 53.30029297 C114.7992856 54.80285361 116.3465341 56.28261086 117.90625 57.75390625 C123.31579578 62.95475042 127.80976978 68.46496669 132.1875 74.53125 C133.91804211 77.01905211 133.91804211 77.01905211 136 79 C136 79.99 136 80.98 136 82 C136.66 82 137.32 82 138 82 C160 119.44680851 160 119.44680851 160 131 C146.8 131 133.6 131 120 131 C118.494375 128.091875 116.98875 125.18375 115.4375 122.1875 C110.82578306 113.37137944 105.93160904 104.98703223 100.0625 96.9375 C98 94 98 94 98 92 C97.4225 91.773125 96.845 91.54625 96.25 91.3125 C93.40260191 89.65151778 91.87932807 87.68475439 90 85 C90 84.34 90 83.68 90 83 C88.515 82.505 88.515 82.505 87 82 C87 81.34 87 80.68 87 80 C86.34 80 85.68 80 85 80 C85 79.34 85 78.68 85 78 C84.34 78 83.68 78 83 78 C83 77.34 83 76.68 83 76 C82.47921875 75.773125 81.9584375 75.54625 81.421875 75.3125 C78.12315465 73.52480639 75.21542579 71.28109676 72.25 69 C71.64800781 68.54882812 71.04601562 68.09765625 70.42578125 67.6328125 C68.91093644 66.47177498 67.45030179 65.24072061 66 64 C66 63.34 66 62.68 66 62 C65.43925781 61.89945313 64.87851562 61.79890625 64.30078125 61.6953125 C61.51418841 60.85318427 59.58935365 59.52050957 57.1875 57.875 C49.76448388 53.05026644 49.76448388 53.05026644 36 47 C36 82.64 36 118.28 36 155 C78.9 155 121.8 155 166 155 C169.57692231 165.73076694 169.0914301 176.84376048 169.125 188.0625 C169.12967285 189.13790039 169.1343457 190.21330078 169.13916016 191.32128906 C169.11395553 204.08258446 167.90609762 215.91336076 164.8125 228.3125 C164.50006348 229.58270996 164.18762695 230.85291992 163.86572266 232.16162109 C161.52953776 241.42229119 158.79245095 250.23262041 155 259 C154.60296875 259.94746094 154.2059375 260.89492188 153.796875 261.87109375 C145.97487943 279.83561023 135.59550415 295.0684272 123 310 C122.39800781 310.73734375 121.79601562 311.4746875 121.17578125 312.234375 C119.83071426 313.8627854 118.42247172 315.43875055 117 317 C116.34 317 115.68 317 115 317 C114.731875 317.598125 114.46375 318.19625 114.1875 318.8125 C113.00082594 320.99847854 111.90400887 322.41332594 110 324 C109.34 324 108.68 324 108 324 C108 324.66 108 325.32 108 326 C106.26608049 327.60634015 104.461909 329.1375287 102.625 330.625 C101.62726563 331.44226563 100.62953125 332.25953125 99.6015625 333.1015625 C97 335 97 335 95 335 C95 335.66 95 336.32 95 337 C92.59825563 338.84425038 90.19495357 340.56024357 87.6875 342.25 C87.01654297 342.71535156 86.34558594 343.18070312 85.65429688 343.66015625 C66.24542955 356.89098975 43.98015091 365.57340872 21 370 C19.88109375 370.24234375 18.7621875 370.4846875 17.609375 370.734375 C11.47713435 372.00193312 6.45821134 372 0 372 C0 335.37 0 298.74 0 261 C11.88 261 23.76 261 36 261 C36 282.45 36 303.9 36 326 C47.8928979 320.9973675 47.8928979 320.9973675 58.75 314.625 C59.46679932 314.14949707 60.18359863 313.67399414 60.92211914 313.18408203 C66.53348072 309.41780362 71.88761339 305.42485876 77 301 C78.27617187 299.90558594 78.27617187 299.90558594 79.578125 298.7890625 C84.33076741 294.61982829 88.64093529 290.34663509 92.625 285.43359375 C93.07875 284.96050781 93.5325 284.48742187 94 284 C94.66 284 95.32 284 96 284 C96.24363281 283.46375 96.48726563 282.9275 96.73828125 282.375 C98.32148214 279.39485714 100.23013255 276.74907374 102.1875 274 C114.14951957 256.9107135 122.904237 238.79740035 127.125 218.3125 C127.28379639 217.54784424 127.44259277 216.78318848 127.60620117 215.99536133 C129.22700318 207.67649482 130.00101289 199.49139043 131 191 C66.155 191.495 66.155 191.495 0 192 C0 128.64 0 65.28 0 0 Z " fill="#029AFA" transform="translate(260,63)"/>
<path d="M0 0 C5.94 0.66 11.88 1.32 18 2 C18 2.33 18 2.66 18 3 C12.72 3 7.44 3 2 3 C2.10735363 26.41730346 2.2198913 49.83457548 2.33933926 73.25182056 C2.39466717 84.12433095 2.44814848 94.99684462 2.49731445 105.86938477 C2.54016155 115.3435445 2.5864409 124.81768011 2.63687855 134.29180259 C2.66347522 139.31037526 2.68832823 144.32894316 2.70907402 149.34754372 C2.72864094 154.06786381 2.75278494 158.78813801 2.78049088 163.50841713 C2.78986101 165.24387276 2.79753643 166.97933846 2.80341911 168.71480942 C2.81168092 171.07850363 2.82595783 173.44208647 2.84178162 175.80574036 C2.84324878 176.84318861 2.84324878 176.84318861 2.84474558 177.90159541 C2.87053529 180.88353985 3.04821931 183.14465794 4 186 C3.67 186.99 3.34 187.98 3 189 C45.24 189.33 87.48 189.66 131 190 C131 190.33 131 190.66 131 191 C66.155 191.495 66.155 191.495 0 192 C0 128.64 0 65.28 0 0 Z " fill="#148CD3" transform="translate(260,63)"/>
<path d="M0 0 C11.88 0 23.76 0 36 0 C36 21.45 36 42.9 36 65 C38.475 64.505 38.475 64.505 41 64 C40.34 64.99 39.68 65.98 39 67 C37.35 67 35.7 67 34 67 C34 45.22 34 23.44 34 1 C23.11 1 12.22 1 1 1 C1 36.97 1 72.94 1 110 C3.97 110 6.94 110 10 110 C10 110.33 10 110.66 10 111 C6.7 111 3.4 111 0 111 C0 74.37 0 37.74 0 0 Z " fill="#0B69A2" transform="translate(260,324)"/>
<path d="M0 0 C5.94 0.66 11.88 1.32 18 2 C18 2.33 18 2.66 18 3 C12.72 3 7.44 3 2 3 C1.67 60.75 1.34 118.5 1 178 C0.67 178 0.34 178 0 178 C0 119.26 0 60.52 0 0 Z " fill="#00548A" transform="translate(260,63)"/>
<path d="M0 0 C0.66 0 1.32 0 2 0 C2.02329804 7.25916264 2.04100329 14.51831706 2.05181217 21.77750969 C2.05700313 25.14921272 2.06403091 28.52088994 2.07543945 31.89257812 C2.08764134 35.77995471 2.09325949 39.66729518 2.09765625 43.5546875 C2.10281754 44.74988007 2.10797882 45.94507263 2.11329651 47.17648315 C2.11373845 53.84932393 1.8315963 60.37704946 1 67 C0.67 67 0.34 67 0 67 C-1.06336914 54.16084705 -1.15452904 41.36271251 -1.13037109 28.4855957 C-1.12492868 25.01704705 -1.13038973 21.54862327 -1.13671875 18.08007812 C-1.13605933 15.87760388 -1.134781 13.67512971 -1.1328125 11.47265625 C-1.13483673 10.43432144 -1.13686096 9.39598663 -1.13894653 8.32618713 C-1.13579437 7.37686813 -1.13264221 6.42754913 -1.12939453 5.44946289 C-1.12859894 4.61169815 -1.12780334 3.77393341 -1.12698364 2.91078186 C-1 1 -1 1 0 0 Z " fill="#0B83CC" transform="translate(294,151)"/>
<path d="M0 0 C0.99 0.33 1.98 0.66 3 1 C2.67 1.33 2.34 1.66 2 2 C1.89253688 3.37829815 1.85320669 4.76199051 1.84178162 6.14442444 C1.8319928 7.03769943 1.82220398 7.93097443 1.81211853 8.85131836 C1.80636307 9.83890137 1.8006076 10.82648438 1.79467773 11.84399414 C1.78477814 12.87801865 1.77487854 13.91204315 1.76467896 14.97740173 C1.73295787 18.41329619 1.70826476 21.84920451 1.68359375 25.28515625 C1.66303337 27.660277 1.64203716 30.03539402 1.62062073 32.4105072 C1.56530539 38.67572005 1.51593798 44.94096643 1.46777344 51.20623779 C1.41762732 57.59390259 1.36190538 63.98151842 1.30664062 70.36914062 C1.19894339 82.91271834 1.0973351 95.45633782 1 108 C2.9490625 107.7834375 2.9490625 107.7834375 4.9375 107.5625 C5.66839844 107.48128906 6.39929688 107.40007812 7.15234375 107.31640625 C9.01140229 107.18113386 9.01140229 107.18113386 10 106 C12.18639453 105.92741054 14.37500389 105.91626217 16.5625 105.9375 C17.76003906 105.94652344 18.95757812 105.95554687 20.19140625 105.96484375 C21.58166016 105.98224609 21.58166016 105.98224609 23 106 C16.20602911 110.52931393 7.92721668 109 0 109 C0 73.03 0 37.06 0 0 Z " fill="#1493E2" transform="translate(261,325)"/>
<path d="M0 0 C0.33 0 0.66 0 1 0 C1.22727273 18.48484848 1.22727273 18.48484848 0 27 C-0.33 27.33 -0.66 27.66 -1 28 C-1.0825 28.928125 -1.165 29.85625 -1.25 30.8125 C-1.84905722 35.62492635 -3.89972834 39.82816389 -5.84375 44.23046875 C-6.79332437 46.50495601 -7.49530981 48.59698646 -8 51 C-8.66 51 -9.32 51 -10 51 C-10 52.65 -10 54.3 -10 56 C-10.66 55.67 -11.32 55.34 -12 55 C-11.5662812 53.49890232 -11.12777365 51.99918823 -10.6875 50.5 C-10.44386719 49.6646875 -10.20023437 48.829375 -9.94921875 47.96875 C-9.21495521 45.6722879 -8.40863859 43.48352255 -7.5234375 41.24609375 C-5.82728608 36.76977248 -4.83987259 32.25520652 -3.9375 27.5625 C-3.76831055 26.70301758 -3.59912109 25.84353516 -3.42480469 24.95800781 C-1.84678278 16.68479469 -0.82477389 8.37796638 0 0 Z " fill="#1380BE" transform="translate(391,254)"/>
<path d="M0 0 C5.94 0.66 11.88 1.32 18 2 C18 2.33 18 2.66 18 3 C12.72 3 7.44 3 2 3 C1.67 22.47 1.34 41.94 1 62 C0.67 62 0.34 62 0 62 C0 41.54 0 21.08 0 0 Z " fill="#005389" transform="translate(260,63)"/>
<path d="M0 0 C4.97056908 0.60876173 8.61151783 1.53816854 13 4 C13 4.99 13 5.98 13 7 C9.37 5.35 5.74 3.7 2 2 C2 12.56 2 23.12 2 34 C1.67 34 1.34 34 1 34 C0.20431798 22.64732258 -0.12818318 11.37981825 0 0 Z " fill="#0874B4" transform="translate(294,108)"/>
<path d="M0 0 C2 3 2 3 1.625 5.1875 C1.41875 5.785625 1.2125 6.38375 1 7 C0.01 7 -0.98 7 -2 7 C-2.1546875 8.8871875 -2.1546875 8.8871875 -2.3125 10.8125 C-2.75292473 14.36071052 -3.30512139 15.61606892 -6 18 C-6.680625 19.7634375 -6.680625 19.7634375 -7.375 21.5625 C-9 25 -9 25 -11.6875 26.4375 C-12.450625 26.623125 -13.21375 26.80875 -14 27 C-12.58655711 24.0597721 -10.98286615 21.3248377 -9.25 18.5625 C-5.64006276 12.61410589 -2.80967919 6.35665009 0 0 Z " fill="#0F6BA5" transform="translate(378,309)"/>
<path d="M0 0 C8.97437342 1.44231001 16.8011712 5.23759267 25 9 C21.90279155 9.87840996 20.09354597 9.99435406 17 9 C17 8.34 17 7.68 17 7 C15.205625 7.0928125 15.205625 7.0928125 13.375 7.1875 C7.94552603 7.19710969 4.44129826 4.96086551 0 2 C0 1.34 0 0.68 0 0 Z " fill="#0E7EC3" transform="translate(295,70)"/>
<path d="M0 0 C0.33 0.66 0.66 1.32 1 2 C3.02463255 2.65213292 3.02463255 2.65213292 5 3 C1.25 6 1.25 6 -1 6 C-1 6.66 -1 7.32 -1 8 C-3.1875 9.7265625 -3.1875 9.7265625 -6 11.625 C-6.928125 12.25664062 -7.85625 12.88828125 -8.8125 13.5390625 C-9.534375 14.02117187 -10.25625 14.50328125 -11 15 C-11.66 14.67 -12.32 14.34 -13 14 C-13 13.01 -13 12.02 -13 11 C-9.66696609 8.50022457 -8.26696398 8 -4 8 C-4 7.01 -4 6.02 -4 5 C-2.68 5 -1.36 5 0 5 C-0.2784375 4.0409375 -0.2784375 4.0409375 -0.5625 3.0625 C-0.706875 2.381875 -0.85125 1.70125 -1 1 C-0.67 0.67 -0.34 0.34 0 0 Z " fill="#0C72B2" transform="translate(356,392)"/>
<path d="M0 0 C0.33 0.66 0.66 1.32 1 2 C-1.75 9.5625 -1.75 9.5625 -5 12 C-5.99 12.33 -6.98 12.66 -8 13 C-8.33 13.66 -8.66 14.32 -9 15 C-11.5625 15.625 -11.5625 15.625 -14 16 C-13.62488281 15.56429688 -13.24976563 15.12859375 -12.86328125 14.6796875 C-12.35152344 14.08414062 -11.83976562 13.48859375 -11.3125 12.875 C-10.76722656 12.24207031 -10.22195313 11.60914063 -9.66015625 10.95703125 C-8.1557467 9.18359787 -6.70207646 7.37867921 -5.25 5.5625 C-4.5075 4.716875 -3.765 3.87125 -3 3 C-2.34 3 -1.68 3 -1 3 C-0.67 2.01 -0.34 1.02 0 0 Z " fill="#0D88D6" transform="translate(357,344)"/>
<path d="M0 0 C0.99 0 1.98 0 3 0 C3 0.99 3 1.98 3 3 C3.66 3 4.32 3 5 3 C7.03435531 6.72965139 8 8.66905042 8 13 C8.99 13.33 9.98 13.66 11 14 C11.33 16.64 11.66 19.28 12 22 C8.92441492 18.30542924 6.97032572 14.16542886 4.875 9.875 C4.51535156 9.14667969 4.15570313 8.41835937 3.78515625 7.66796875 C2.85351023 5.78025154 1.92644303 3.89027614 1 2 C0.67 1.34 0.34 0.68 0 0 Z " fill="#126DAA" transform="translate(368,171)"/>
<path d="M0 0 C1.32 0.33 2.64 0.66 4 1 C3.07161713 2.31896465 2.13194268 3.62998689 1.1875 4.9375 C0.40439453 6.03384766 0.40439453 6.03384766 -0.39453125 7.15234375 C-2 9 -2 9 -5 10 C-5.69937532 11.31647119 -6.36729133 12.65022151 -7 14 C-7.99 14.495 -7.99 14.495 -9 15 C-9.33 13.35 -9.66 11.7 -10 10 C-8.68 10.33 -7.36 10.66 -6 11 C-6.33 10.01 -6.66 9.02 -7 8 C-5.68 8 -4.36 8 -3 8 C-3 6.68 -3 5.36 -3 4 C-2.34 3.67 -1.68 3.34 -1 3 C-0.67 2.01 -0.34 1.02 0 0 Z " fill="#0E75B4" transform="translate(380,370)"/>
<path d="M0 0 C2.33214823 7.26297592 -1.25215886 15.25529901 -4 22 C-4.66 22 -5.32 22 -6 22 C-6 23.65 -6 25.3 -6 27 C-6.66 26.67 -7.32 26.34 -8 26 C-6.62291436 21.23391638 -5.24288561 16.49899783 -3.4375 11.875 C-1.92828175 7.98280558 -0.94357502 4.06463085 0 0 Z " fill="#126CA1" transform="translate(387,283)"/>
<path d="M0 0 C0.33 0 0.66 0 1 0 C1 1.98 1 3.96 1 6 C2.299375 5.855625 3.59875 5.71125 4.9375 5.5625 C5.66839844 5.48128906 6.39929688 5.40007812 7.15234375 5.31640625 C9.01140229 5.18113386 9.01140229 5.18113386 10 4 C12.18639453 3.92741054 14.37500389 3.91626217 16.5625 3.9375 C18.35880859 3.95103516 18.35880859 3.95103516 20.19140625 3.96484375 C21.11824219 3.97644531 22.04507812 3.98804688 23 4 C16.37583274 8.41611151 7.66977927 7.10380152 0 7 C0 4.69 0 2.38 0 0 Z " fill="#1587C9" transform="translate(261,427)"/>
<path d="M0 0 C0.66 0 1.32 0 2 0 C1.34712812 3.8084193 -0.42098651 6.52923321 -2.5 9.75 C-3.1290625 10.73484375 -3.758125 11.7196875 -4.40625 12.734375 C-4.9321875 13.48203125 -5.458125 14.2296875 -6 15 C-6.33 15 -6.66 15 -7 15 C-7 13.02 -7 11.04 -7 9 C-5.68 8.67 -4.36 8.34 -3 8 C-2.67 6.35 -2.34 4.7 -2 3 C-1.34 3 -0.68 3 0 3 C0 2.01 0 1.02 0 0 Z " fill="#1076B7" transform="translate(403,340)"/>
<path d="M0 0 C4.75 0.875 4.75 0.875 7 2 C7 2.66 7 3.32 7 4 C8.32 4 9.64 4 11 4 C11 4.66 11 5.32 11 6 C11.66 6 12.32 6 13 6 C13 6.66 13 7.32 13 8 C15.475 8.99 15.475 8.99 18 10 C18 10.66 18 11.32 18 12 C16 11 14 10 12 9 C12 8.34 12 7.68 12 7 C11.14148438 6.82984375 11.14148438 6.82984375 10.265625 6.65625 C7.76874494 5.93301578 5.93856487 4.89419688 3.75 3.5 C3.04359375 3.0565625 2.3371875 2.613125 1.609375 2.15625 C1.07828125 1.7746875 0.5471875 1.393125 0 1 C0 0.67 0 0.34 0 0 Z " fill="#1278AE" transform="translate(314,118)"/>
<path d="M0 0 C1.98 0 3.96 0 6 0 C3.05442083 1.96371945 0.24961274 3.29765337 -3 4.6875 C-4.051875 5.14511719 -5.10375 5.60273438 -6.1875 6.07421875 C-9 7 -9 7 -12 6 C-11.34 5.34 -10.68 4.68 -10 4 C-9.01 4 -8.02 4 -7 4 C-7 3.34 -7 2.68 -7 2 C-4.69 2 -2.38 2 0 2 C0 1.34 0 0.68 0 0 Z " fill="#0E6FA7" transform="translate(311,421)"/>
<path d="M0 0 C5.75 1.875 5.75 1.875 8 3 C8.33 2.34 8.66 1.68 9 1 C9.82638376 3.89234315 10 5.88742431 10 9 C9.01 8.67 8.02 8.34 7 8 C7 7.34 7 6.68 7 6 C6.34 6 5.68 6 5 6 C5 5.34 5 4.68 5 4 C4.34 4 3.68 4 3 4 C3 3.34 3 2.68 3 2 C2.01 1.67 1.02 1.34 0 1 C0 0.67 0 0.34 0 0 Z " fill="#0D86CF" transform="translate(340,137)"/>
<path d="M0 0 C0.66 0.33 1.32 0.66 2 1 C1.07347299 2.17539996 0.13336613 3.34010577 -0.8125 4.5 C-1.59560547 5.47453125 -1.59560547 5.47453125 -2.39453125 6.46875 C-4 8 -4 8 -7 8 C-7 8.66 -7 9.32 -7 10 C-8.65 10.33 -10.3 10.66 -12 11 C-8.19588166 7.08060535 -4.18423892 3.50897269 0 0 Z " fill="#12699D" transform="translate(338,363)"/>
<path d="M0 0 C3.45201639 1.47721422 5.64961936 3.43794001 8.25 6.125 C8.95640625 6.84945312 9.6628125 7.57390625 10.390625 8.3203125 C11.18726563 9.15175781 11.18726563 9.15175781 12 10 C11.01 10.33 10.02 10.66 9 11 C8.34 10.67 7.68 10.34 7 10 C7 9.01 7 8.02 7 7 C6.34 7 5.68 7 5 7 C5 6.34 5 5.68 5 5 C3.68 4.67 2.36 4.34 1 4 C0.67 2.68 0.34 1.36 0 0 Z " fill="#0F78B6" transform="translate(364,109)"/>
<path d="M0 0 C5.94 0.66 11.88 1.32 18 2 C18 2.33 18 2.66 18 3 C12.72 3 7.44 3 2 3 C2 4.65 2 6.3 2 8 C0 5 0 5 0 0 Z " fill="#146FA3" transform="translate(260,63)"/>
<path d="M0 0 C3.48749314 2.78999451 6.50157221 5.25235831 9 9 C8.67 9.66 8.34 10.32 8 11 C6.0625 10.1875 6.0625 10.1875 4 9 C3.67 8.01 3.34 7.02 3 6 C2.01 5.67 1.02 5.34 0 5 C0 3.35 0 1.7 0 0 Z " fill="#0D6AA5" transform="translate(379,123)"/>
<path d="M0 0 C-1.74552064 1.15264553 -3.49660196 2.29687327 -5.25 3.4375 C-6.22453125 4.07558594 -7.1990625 4.71367187 -8.203125 5.37109375 C-10.58381615 6.7576136 -12.31780307 7.546581 -15 8 C-15 7.34 -15 6.68 -15 6 C-14.01 5.67 -13.02 5.34 -12 5 C-11.67 4.01 -11.34 3.02 -11 2 C-9.00390625 1.015625 -9.00390625 1.015625 -6.5625 0.25 C-5.75941406 -0.01296875 -4.95632813 -0.2759375 -4.12890625 -0.546875 C-2 -1 -2 -1 0 0 Z " fill="#0C6094" transform="translate(343,408)"/>
<path d="M0 0 C-0.5 1.8125 -0.5 1.8125 -2 4 C-5.31738334 5.81213892 -8.46663529 7.28916393 -12.2578125 6.57421875 C-12.83273437 6.38472656 -13.40765625 6.19523437 -14 6 C-12.04414675 4.99515796 -10.08523763 3.99626195 -8.125 3 C-6.48917969 2.1646875 -6.48917969 2.1646875 -4.8203125 1.3125 C-2 0 -2 0 0 0 Z " fill="#1378B2" transform="translate(315,381)"/>
<path d="M0 0 C-0.50603992 2.16874252 -0.99983813 3.99967627 -2 6 C-4.06640625 6.4140625 -4.06640625 6.4140625 -6.5625 6.625 C-7.38878906 6.69976562 -8.21507812 6.77453125 -9.06640625 6.8515625 C-10.02353516 6.92503906 -10.02353516 6.92503906 -11 7 C-4.28080229 0 -4.28080229 0 0 0 Z " fill="#1179BF" transform="translate(326,374)"/>
<path d="M0 0 C0.66 0.33 1.32 0.66 2 1 C2 3.64 2 6.28 2 9 C1.67 8.34 1.34 7.68 1 7 C0.0409375 6.566875 0.0409375 6.566875 -0.9375 6.125 C-3.42001234 4.77090236 -3.96871397 3.57821507 -5 1 C-2.525 1.495 -2.525 1.495 0 2 C0 1.34 0 0.68 0 0 Z " fill="#0A83CA" transform="translate(357,148)"/>
<path d="M0 0 C1.56393356 3.97376829 0.36145292 6.81377903 -0.9375 10.75 C-1.31777344 11.92046875 -1.69804687 13.0909375 -2.08984375 14.296875 C-2.39019531 15.18890625 -2.69054687 16.0809375 -3 17 C-4.0143635 13.83461036 -3.95408471 11.72075879 -3.1875 8.5 C-3.01605469 7.7471875 -2.84460938 6.994375 -2.66796875 6.21875 C-1.99511069 3.98375948 -1.10497297 2.05142661 0 0 Z " fill="#10689B" transform="translate(422,295)"/>
<path d="M0 0 C5.57142857 5.14285714 5.57142857 5.14285714 6 9 C2.34683329 7.75023244 1.21934164 7.32901247 -1 4 C-0.625 1.8125 -0.625 1.8125 0 0 Z " fill="#0B7ABF" transform="translate(390,136)"/>
<path d="M0 0 C0.99 0 1.98 0 3 0 C2.48041715 4.37934119 1.94324258 8.68803391 1 13 C0.67 13 0.34 13 0 13 C0 8.71 0 4.42 0 0 Z " fill="#117ABD" transform="translate(423,282)"/>
<path d="M0 0 C0.33 1.32 0.66 2.64 1 4 C0.01 4.33 -0.98 4.66 -2 5 C-2 5.66 -2 6.32 -2 7 C-4 8.625 -4 8.625 -6 10 C-6.66 9.67 -7.32 9.34 -8 9 C-5.36 6.03 -2.72 3.06 0 0 Z " fill="#A9A9A9" transform="translate(124,119)"/>
<path d="M0 0 C3.55780196 0.60990891 6.6828589 1.5783681 10 3 C10 3.99 10 4.98 10 6 C6.7 4.35 3.4 2.7 0 1 C0 0.67 0 0.34 0 0 Z " fill="#127DBE" transform="translate(297,109)"/>
<path d="M0 0 C3.59391114 1.33488128 6.75490696 2.96022723 10 5 C7 6 7 6 4 5 C4 4.34 4 3.68 4 3 C2.68 3.33 1.36 3.66 0 4 C0 2.68 0 1.36 0 0 Z " fill="#0D69A1" transform="translate(332,86)"/>
<path d="M0 0 C-2.22825644 2.22825644 -3.65761628 2.69239369 -6.625 3.625 C-7.44226563 3.88539063 -8.25953125 4.14578125 -9.1015625 4.4140625 C-9.72804688 4.60742188 -10.35453125 4.80078125 -11 5 C-11 4.34 -11 3.68 -11 3 C-10.34 3 -9.68 3 -9 3 C-9 2.34 -9 1.68 -9 1 C-5.92677456 0.08941469 -3.19902639 -0.08886184 0 0 Z " fill="#0F6BA9" transform="translate(328,416)"/>
<path d="M0 0 C0.99 0 1.98 0 3 0 C1.90931332 3.77545388 1.0916909 6.47043472 -2 9 C-2 7.35 -2 5.7 -2 4 C-1.34 4 -0.68 4 0 4 C0 2.68 0 1.36 0 0 Z " fill="#0E6FAD" transform="translate(409,327)"/>
<path d="M0 0 C4.75 0.875 4.75 0.875 7 2 C7.625 4.5625 7.625 4.5625 8 7 C2.25 3.375 2.25 3.375 0 0 Z " fill="#0D6EA8" transform="translate(332,130)"/>
<path d="M0 0 C5.02265357 1.18180084 8.0949151 2.44992282 12 6 C7.61110675 5.33501617 4.0188515 3.81242323 0 2 C0 1.34 0 0.68 0 0 Z " fill="#1473B3" transform="translate(320,80)"/>
<path d="M0 0 C0 3.66842255 -0.79029126 5.10451959 -3 8 C-5.6875 8.8125 -5.6875 8.8125 -8 9 C-7.04270084 7.87411986 -6.08412105 6.7493285 -5.125 5.625 C-4.59132813 4.99851562 -4.05765625 4.37203125 -3.5078125 3.7265625 C-2.38567993 2.44163349 -1.20628025 1.20628025 0 0 Z " fill="#1077B0" transform="translate(351,351)"/>
<path d="M0 0 C1.9375 0.5 1.9375 0.5 4 2 C4.68790422 4.69658452 4.81946464 7.2017019 5 10 C2.35534962 6.8745041 1.15585285 3.91211733 0 0 Z " fill="#0E5C91" transform="translate(375,183)"/>
<path d="M0 0 C-0.99 0.33 -1.98 0.66 -3 1 C-3 1.66 -3 2.32 -3 3 C-4.98 3.99 -4.98 3.99 -7 5 C-6.67 3.35 -6.34 1.7 -6 0 C-3 -1 -3 -1 0 0 Z " fill="#0D6EAD" transform="translate(371,386)"/>
<path d="M0 0 C0.66 0 1.32 0 2 0 C1.35455571 3.48539917 -0.10134397 6.02819057 -2 9 C-3.125 5.25 -3.125 5.25 -2 3 C-1.34 3 -0.68 3 0 3 C0 2.01 0 1.02 0 0 Z " fill="#0F6499" transform="translate(403,340)"/>
<path d="M0 0 C0.763125 0.309375 1.52625 0.61875 2.3125 0.9375 C4.18789677 1.67893593 6.08684652 2.36228217 8 3 C8 3.66 8 4.32 8 5 C6.02 5 4.04 5 2 5 C1.34 3.35 0.68 1.7 0 0 Z " fill="#A5A5A5" transform="translate(297,297)"/>
<path d="M0 0 C0.66 0.33 1.32 0.66 2 1 C-0.46153846 5.8 -0.46153846 5.8 -3.1875 6.8125 C-3.785625 6.874375 -4.38375 6.93625 -5 7 C-4.34 5.68 -3.68 4.36 -3 3 C-2.01 3 -1.02 3 0 3 C0 2.01 0 1.02 0 0 Z " fill="#0D83CA" transform="translate(369,329)"/>
<path d="M0 0 C3.48331435 3.01887244 4.79157144 5.56909529 6 10 C5.01 9.67 4.02 9.34 3 9 C2.6278958 7.67696283 2.29369827 6.34262065 2 5 C1.34 4.67 0.68 4.34 0 4 C0 2.68 0 1.36 0 0 Z " fill="#106FAD" transform="translate(399,149)"/>
<path d="M0 0 C0.66 0.66 1.32 1.32 2 2 C1.67 2.66 1.34 3.32 1 4 C-2.37462715 3.45276317 -4.08235 2.9451 -7 1 C-5.5459375 1.0309375 -5.5459375 1.0309375 -4.0625 1.0625 C-1.12534105 1.35618499 -1.12534105 1.35618499 0 0 Z " fill="#0C90D9" transform="translate(315,114)"/>
<path d="M0 0 C1.485 0.99 1.485 0.99 3 2 C3.99 2 4.98 2 6 2 C5.67 2.99 5.34 3.98 5 5 C4.01 5.33 3.02 5.66 2 6 C1.01 4.35 0.02 2.7 -1 1 C-0.67 0.67 -0.34 0.34 0 0 Z " fill="#0899EE" transform="translate(338,402)"/>
<path d="M0 0 C0.66 0.33 1.32 0.66 2 1 C0.6875 2.5 0.6875 2.5 -1 4 C-1.99 4 -2.98 4 -4 4 C-4 4.66 -4 5.32 -4 6 C-4.66 5.67 -5.32 5.34 -6 5 C-3.375 1.125 -3.375 1.125 0 0 Z " fill="#0F8FD8" transform="translate(345,359)"/>
<path d="M0 0 C1.39195915 4.17587745 -0.17676781 6.13474776 -2 10 C-3.10348268 6.68955197 -2.99444068 4.34493684 -2 1 C-1.34 0.67 -0.68 0.34 0 0 Z " fill="#0D69A6" transform="translate(415,317)"/>
<path d="M0 0 C1.43088528 2.86177057 0.59991697 4.93375773 0 8 C-0.66 8 -1.32 8 -2 8 C-2.33 8.66 -2.66 9.32 -3 10 C-3 5.66905042 -2.03435531 3.72965139 0 0 Z " fill="#B9B9B9" transform="translate(140,250)"/>
<path d="M0 0 C2.475 0.495 2.475 0.495 5 1 C5 2.32 5 3.64 5 5 C4.01 4.67 3.02 4.34 2 4 C2 3.34 2 2.68 2 2 C1.34 2 0.68 2 0 2 C0 1.34 0 0.68 0 0 Z " fill="#0E7AB9" transform="translate(345,141)"/>
</svg>
